<svg width="41" height="19" viewBox="0 0 41 19" fill="none" xmlns="http://www.w3.org/2000/svg">
<g clip-path="url(#clip0_162_1030)">
<path d="M7.86061 3.63737H2.80322V4.94429H7.86061V3.63737Z" fill="black"/>
<path d="M15.7814 12.0017H10.7612V13.4206H15.7814V12.0017Z" fill="black"/>
<path d="M15.7814 3.63737H11.0215V4.94429H15.7814V3.63737Z" fill="black"/>
<path d="M12.0999 12.8139L7.86597 3.63737L6.52195 4.26263L10.7559 13.4391L12.0999 12.8139Z" fill="black"/>
<ellipse cx="5.37751" cy="7.50071" rx="1.07257" ry="1.07315" fill="black"/>
<ellipse cx="13.4217" cy="7.50071" rx="1.07257" ry="1.07315" fill="black"/>
</g>
<path d="M23.1186 14V3.81818H24.6548V12.6776H29.2685V14H23.1186ZM30.0616 14V6.36364H31.5481V14H30.0616ZM30.8123 5.18537C30.5538 5.18537 30.3318 5.09919 30.1462 4.92685C29.9639 4.75118 29.8727 4.54238 29.8727 4.30043C29.8727 4.05516 29.9639 3.84635 30.1462 3.67401C30.3318 3.49834 30.5538 3.41051 30.8123 3.41051C31.0709 3.41051 31.2913 3.49834 31.4736 3.67401C31.6592 3.84635 31.752 4.05516 31.752 4.30043C31.752 4.54238 31.6592 4.75118 31.4736 4.92685C31.2913 5.09919 31.0709 5.18537 30.8123 5.18537ZM35.9246 14.1541C35.2087 14.1541 34.5839 13.9901 34.0503 13.6619C33.5167 13.3338 33.1024 12.8748 32.8074 12.2848C32.5124 11.6948 32.3649 11.0054 32.3649 10.2166C32.3649 9.42448 32.5124 8.73177 32.8074 8.13849C33.1024 7.54522 33.5167 7.08452 34.0503 6.75639C34.5839 6.42827 35.2087 6.2642 35.9246 6.2642C36.6405 6.2642 37.2653 6.42827 37.7989 6.75639C38.3325 7.08452 38.7468 7.54522 39.0418 8.13849C39.3367 8.73177 39.4842 9.42448 39.4842 10.2166C39.4842 11.0054 39.3367 11.6948 39.0418 12.2848C38.7468 12.8748 38.3325 13.3338 37.7989 13.6619C37.2653 13.9901 36.6405 14.1541 35.9246 14.1541ZM35.9296 12.9062C36.3936 12.9062 36.778 12.7836 37.083 12.5384C37.3879 12.2931 37.6133 11.9666 37.7591 11.5589C37.9082 11.1513 37.9828 10.7022 37.9828 10.2116C37.9828 9.72443 37.9082 9.27699 37.7591 8.86932C37.6133 8.45833 37.3879 8.12855 37.083 7.87997C36.778 7.63139 36.3936 7.5071 35.9296 7.5071C35.4622 7.5071 35.0744 7.63139 34.7662 7.87997C34.4613 8.12855 34.2342 8.45833 34.0851 8.86932C33.9393 9.27699 33.8663 9.72443 33.8663 10.2116C33.8663 10.7022 33.9393 11.1513 34.0851 11.5589C34.2342 11.9666 34.4613 12.2931 34.7662 12.5384C35.0744 12.7836 35.4622 12.9062 35.9296 12.9062Z" fill="black"/>
<defs>
<clipPath id="clip0_162_1030">
<rect width="12.9781" height="12.7705" fill="white" transform="translate(2.80322 3.53005)"/>
</clipPath>
</defs>
</svg>
